<?xml version="1.0" encoding="UTF-8"?>
<!DOCTYPE svg PUBLIC "-//W3C//DTD SVG 1.1//EN" "http://www.w3.org/Graphics/SVG/1.1/DTD/svg11.dtd">
<!-- Creator: CorelDRAW X6 -->
<svg xmlns="http://www.w3.org/2000/svg" xml:space="preserve" width="210mm" height="210mm" version="1.1" style="shape-rendering:geometricPrecision; text-rendering:geometricPrecision; image-rendering:optimizeQuality; fill-rule:evenodd; clip-rule:evenodd"
viewBox="0 0 21000 21000"
 xmlns:xlink="http://www.w3.org/1999/xlink">
 <defs>
  <style type="text/css">
   <![CDATA[
    .fil0 {fill:#D92226}
    .fil1 {fill:#FEFEFE}
   ]]>
  </style>
 </defs>
 <g id="Слой_x0020_1">
  <metadata id="CorelCorpID_0Corel-Layer"/>
  <path class="fil0" d="M20916 10528c0,5745 -4658,10403 -10404,10403 -5745,0 -10403,-4658 -10403,-10403 0,-5746 4658,-10404 10403,-10404 5746,0 10404,4658 10404,10404z"/>
  <path class="fil1" d="M11406 10261c453,0 907,0 1360,0 745,0 1744,75 2321,-328 232,-163 365,-553 372,-815 4,-146 -45,-353 -102,-477 -126,-275 -354,-451 -691,-551 -539,-160 -1313,-119 -1892,-119 -456,0 -911,0 -1366,0l-2 2290zm-7179 -2250l2672 1 4 5808 1035 0 5 -5808 2374 0 1 5808 1086 0 2 -2823c632,-1 1263,0 1895,0 649,0 1180,-60 1592,249 596,447 352,1571 554,2272 33,113 89,194 118,302l1233 0 -120 -176c-537,-837 -84,-1914 -606,-2554 -179,-219 -507,-379 -840,-419 31,-32 316,-122 518,-257 104,-69 130,-102 215,-165 128,-95 315,-348 388,-484 148,-276 152,-458 152,-786 0,-315 -28,-516 -166,-779 -207,-391 -640,-694 -1189,-846 -297,-82 -623,-119 -962,-119l-9961 2 0 774z"/>
 </g>
</svg>
